Coordinates
version=1
nRows=10
nColumns=46
inDegrees=yes

Units are S.I. units (second, meters, Newtons, ...)
Angles are in degrees.

endheader
time	pelvis_tilt	pelvis_list	pelvis_rotation	pelvis_tx	pelvis_ty	pelvis_tz	bb_angle	bb_tx	bb_ty	bb_tz	hip_flexion_r	hip_adduction_r	hip_rotation_r	knee_angle_r	knee_angle_r_beta	ankle_angle_r	subtalar_angle_r	mtp_angle_r	crank_angle_r	hip_flexion_l	hip_adduction_l	hip_rotation_l	knee_angle_l	knee_angle_l_beta	ankle_angle_l	subtalar_angle_l	mtp_angle_l	crank_angle_l	lumbar_extension	lumbar_bending	lumbar_rotation	arm_flex_r	arm_add_r	arm_rot_r	elbow_flex_r	pro_sup_r	wrist_flex_r	wrist_dev_r	arm_flex_l	arm_add_l	arm_rot_l	elbow_flex_l	pro_sup_l	wrist_flex_l	wrist_dev_l
      0.00500000	    -24.06679864	     -4.22883322	     -6.09616326	      0.16881512	      1.10793566	     -0.21552414	      0.00000000	      0.50000000	      0.00000000	      0.25000000	     89.60162410	      2.80699942	      0.37392783	     95.31661560	      1.66358877	     27.41510166	     -3.79760525	      0.00000000	      0.00000000	     37.88419977	    -11.01399122	     -0.72500960	     32.37536600	      0.56505673	     15.80817282	     -1.59243770	      0.00000000	      0.00000000	    -46.67940209	      1.11340048	      6.97908509	     89.38014284	     -4.64399080	     44.97743698	     30.44674892	     28.09210749	      0.00000000	      0.00000000	     89.73099978	     -3.42554087	     38.18890950	     26.76657064	     24.18001685	      0.00000000	      0.00000000
      0.01000000	    -24.13712820	     -4.26173151	     -6.12762593	      0.16883131	      1.10776332	     -0.21557670	      0.00000000	      0.50000000	      0.00000000	      0.25000000	     89.57707113	      2.85680937	      0.33998510	     94.99148857	      1.65791424	     27.36612862	     -3.81993550	      0.00000000	      0.00000000	     37.82947952	    -11.02628435	     -0.64196684	     32.45203387	      0.56639484	     16.44103601	     -1.63615487	      0.00000000	      0.00000000	    -46.59444983	      1.13898971	      6.93501539	     89.41588605	     -4.74970169	     45.66239181	     29.83373477	     31.15335864	      0.00000000	      0.00000000	     89.72547834	     -3.57408363	     37.87914687	     26.40489344	     27.19497726	      0.00000000	      0.00000000
      0.01500000	    -24.14095372	     -4.26835019	     -6.13448208	      0.16889430	      1.10769506	     -0.21572630	      0.00000000	      0.50000000	      0.00000000	      0.25000000	     89.47465675	      2.83344752	      0.33670201	     94.66014106	      1.65213113	     27.37160862	     -3.70995408	      0.00000000	      0.00000000	     37.68913843	    -10.97630222	     -0.54988361	     32.48261665	      0.56692861	     17.01714227	     -1.79314581	      0.00000000	      0.00000000	    -46.58705325	      1.16087809	      6.98994404	     89.40763367	     -4.86143658	     45.64948311	     29.91536273	     31.57117532	      0.00000000	      0.00000000	     89.72754289	     -3.57890982	     38.31285216	     26.36586693	     26.95779141	      0.00000000	      0.00000000
      0.02000000	    -24.11621457	     -4.18534974	     -6.21863839	      0.16921615	      1.10835488	     -0.21561009	      0.00000000	      0.50000000	      0.00000000	      0.25000000	     89.25686486	      3.04113742	      0.43904624	     94.26558623	      1.64524485	     27.33278369	     -4.04000549	      0.00000000	      0.00000000	     36.95733836	    -10.80831208	     -0.19102530	     31.65814863	      0.55253893	     17.58262263	     -3.06333235	      0.00000000	      0.00000000	    -46.66987673	      0.83250896	      7.06699079	     89.40407974	     -5.58719845	     46.16494433	     30.10690261	     33.50373696	      0.00000000	      0.00000000	     89.72577853	     -3.80225248	     38.84239588	     26.72542280	     28.37706802	      0.00000000	      0.00000000
      0.02500000	    -24.07239142	     -4.27941360	     -6.25329809	      0.16962207	      1.10875967	     -0.21528363	      0.00000000	      0.50000000	      0.00000000	      0.25000000	     89.00561658	      3.16259407	      0.36277969	     93.79759720	      1.63707690	     27.23437588	     -4.28932271	      0.00000000	      0.00000000	     36.31993083	    -10.68268344	      0.28845935	     30.88086815	      0.53897283	     17.78472945	     -3.05176898	      0.00000000	      0.00000000	    -46.77122328	      0.74497011	      7.11942194	     89.38046362	     -5.66091588	     45.24335085	     30.17385517	     33.73582245	      0.00000000	      0.00000000	     89.73300048	     -3.19952212	     38.06553612	     26.45843642	     28.58771042	      0.00000000	      0.00000000
      0.03000000	    -24.34193749	     -4.56837250	     -6.31685616	      0.16934667	      1.10837295	     -0.21461290	      0.00000000	      0.50000000	      0.00000000	      0.25000000	     89.11104993	      3.49283792	      0.12939758	     93.35579911	      1.62936607	     27.11246985	     -4.77074236	      0.00000000	      0.00000000	     36.35725767	    -10.76858655	      1.35824809	     30.72316043	      0.53622031	     18.14441698	     -4.23727404	      0.00000000	      0.00000000	    -46.49147317	      0.88482409	      7.42982896	     89.37234225	     -5.47986969	     44.91336406	     29.76652687	     33.90542610	      0.00000000	      0.00000000	     89.73580013	     -2.89690389	     37.46679759	     26.05755216	     28.50443948	      0.00000000	      0.00000000
      0.03500000	    -24.29455467	     -4.56607968	     -6.29121335	      0.16939492	      1.10846190	     -0.21479660	      0.00000000	      0.50000000	      0.00000000	      0.25000000	     88.91440228	      3.47987768	      0.16683608	     93.01044381	      1.62333848	     27.15796850	     -4.82468614	      0.00000000	      0.00000000	     36.12226221	    -10.65690181	      1.44702288	     30.61929157	      0.53440745	     18.62149269	     -4.57548923	      0.00000000	      0.00000000	    -46.60600527	      0.92632861	      7.52702684	     89.35932281	     -5.51281554	     44.21482381	     30.13984591	     34.07157545	      0.00000000	      0.00000000	     89.72991732	     -2.94462168	     36.88309317	     26.54016418	     28.72939575	      0.00000000	      0.00000000
      0.04000000	    -24.92879353	     -5.59643768	     -4.58125666	      0.16626160	      1.10648115	     -0.21816250	      0.00000000	      0.50000000	      0.00000000	      0.25000000	     89.48853112	      1.77720145	     -0.86894063	     92.70405460	      1.61799098	     27.03091600	     -4.90394996	      0.00000000	      0.00000000	     37.88027298	    -10.34686800	      4.01282634	     31.62190152	      0.55190630	     18.94384040	     -5.13293384	      0.00000000	      0.00000000	    -45.94736491	      3.11870173	      6.95201787	     89.45108409	     -5.58073565	     45.07011140	     29.87048057	     34.50075912	      0.00000000	      0.00000000	     89.73159854	     -3.16341813	     37.29230773	     26.52967819	     29.09378448	      0.00000000	      0.00000000
      0.04500000	    -24.83627067	     -5.53403346	     -4.63265573	      0.16654938	      1.10660293	     -0.21826831	      0.00000000	      0.50000000	      0.00000000	      0.25000000	     89.26495596	      1.80257910	     -0.79051023	     92.43463207	      1.61328867	     27.21511597	     -4.68730184	      0.00000000	      0.00000000	     37.54085100	    -10.11144835	      4.54138090	     31.50175374	      0.54980932	     19.20448099	     -6.09233993	      0.00000000	      0.00000000	    -46.07855848	      3.00855638	      7.00443592	     89.42149433	     -5.62173628	     44.24430858	     30.14748737	     34.80848591	      0.00000000	      0.00000000	     89.73050542	     -2.98185570	     36.82824334	     26.54231812	     29.38515969	      0.00000000	      0.00000000
      0.05000000	    -25.13357974	     -5.94848517	     -5.14591697	      0.16570400	      1.10560287	     -0.21510062	      0.00000000	      0.50000000	      0.00000000	      0.25000000	     89.50383043	      2.76174331	     -1.17724805	     92.05829592	      1.60672037	     27.17970936	     -4.99308651	      0.00000000	      0.00000000	     37.96274249	    -11.11649196	      4.07321822	     31.97897349	      0.55813838	     19.94966236	     -5.67567526	      0.00000000	      0.00000000	    -45.94388920	      3.28484777	      7.62948101	     89.42170782	     -5.10414104	     43.45606458	     30.75204123	     35.18167285	      0.00000000	      0.00000000	     89.71497544	     -3.67436917	     36.09729906	     27.08337119	     29.86796242	      0.00000000	      0.00000000
